<?xml version="1.0" encoding="UTF-8" standalone="no"?>
<!DOCTYPE svg PUBLIC "-//W3C//DTD SVG 1.1//EN" "http://www.w3.org/Graphics/SVG/1.1/DTD/svg11.dtd">
<svg width="100%" height="100%" viewBox="0 0 3600 3600" version="1.1" xmlns="http://www.w3.org/2000/svg" xmlns:xlink="http://www.w3.org/1999/xlink" xml:space="preserve" xmlns:serif="http://www.serif.com/" style="fill-rule:evenodd;clip-rule:evenodd;stroke-linejoin:round;stroke-miterlimit:2;">
    <g transform="matrix(-0.454766,0,0,0.435881,4099.02,-743.794)">
        <rect x="-1691.43" y="-197.915" width="15977.7" height="15016.1"/>
    </g>
    <g transform="matrix(-0.42666,0,0,0.42666,4337.66,-1114.99)">
        <circle cx="5886.91" cy="6811.86" r="3923.53" style="fill:white;"/>
    </g>
    <g transform="matrix(-0.348031,0,0,0.348031,3713.57,-426.878)">
        <path d="M5423.73,4097.75L7419.8,4999.31L7912.78,7025.1L6531.47,8649.65L4316,8649.65L2934.68,7025.1L3427.67,4999.31L5423.73,4097.75Z"/>
    </g>
    <g id="D84B4D30-11A8-4EFE-B44D-1FFDC2176FD3.eps" transform="matrix(-1.2011,-2.30754,3.78145,-1.96829,2122.14,955.273)">
        <g transform="matrix(1,0,0,1,-174.5,-280)">
            <clipPath id="_clip1">
                <rect x="0" y="0" width="349" height="560"/>
            </clipPath>
            <g clip-path="url(#_clip1)">
                <g>
                    <path d="M269.867,1.48C230.965,9.18 198.668,46.18 184.465,99.18C176.566,128.781 175.668,138.582 174.965,206.98C174.367,260.883 174.066,266.98 172.465,271.48C170.266,277.48 166.566,282.68 163.266,284.18L160.867,285.281L164.867,288.781C171.566,294.48 172.867,298.281 174.367,315.883C177.566,353.48 177.066,382.781 172.766,412.48C164.465,470.582 142.266,510.383 107.766,529.383C99.465,533.883 84.266,538.98 78.066,539.281L73.266,539.48L60.566,524.98L47.965,510.48L56.965,509.281C78.066,506.48 88.965,495.582 90.566,475.781C91.668,462.68 87.668,450.68 79.566,443.281C72.168,436.48 65.464,433.68 52.367,431.883C44.566,430.883 43.367,430.98 37.168,432.98C21.066,438.18 9.367,447.48 3.668,459.68C0.766,465.68 0.367,467.68 0.066,477.082C-0.434,490.082 1.867,500.48 7.867,512.48C16.066,528.68 28.965,541.281 46.367,549.98C62.465,557.98 69.266,559.48 88.867,559.48C105.367,559.48 105.367,559.48 116.367,555.68C135.168,549.18 148.867,540.781 163.766,526.48C195.367,496.18 214.066,453.48 220.867,395.98C221.465,390.781 222.367,373.68 222.867,357.98C223.367,342.281 224.266,327.48 224.867,324.98C226.266,319.48 230.668,311.18 232.965,309.883C234.465,309.082 234.367,308.68 231.465,305.781C224.168,298.383 222.566,289.281 220.766,242.48C217.766,164.582 222.867,103.48 235.766,64.281C247.066,29.883 263.168,12.48 284.867,11.18L292.367,10.781L303.066,22.281L313.766,33.68L307.965,34.281C292.465,35.68 284.766,46.281 284.465,66.582C284.367,75.883 284.566,76.98 287.367,82.582C294.465,96.48 313.465,100.781 331.266,92.68C342.867,87.383 348.867,78.582 348.867,66.98C348.867,48.98 341.465,29.48 330.168,17.781C315.965,3.18 292.867,-3.117 269.867,1.48Z" style="fill-rule:nonzero;"/>
                </g>
            </g>
        </g>
    </g>
    <g id="D84B4D30-11A8-4EFE-B44D-1FFDC2176FD3.eps1" serif:id="D84B4D30-11A8-4EFE-B44D-1FFDC2176FD3.eps" transform="matrix(1.00209,-2.40067,3.93406,1.64216,2745.51,1534.71)">
        <g transform="matrix(1,0,0,1,-174.5,-280)">
            <clipPath id="_clip2">
                <rect x="0" y="0" width="349" height="560"/>
            </clipPath>
            <g clip-path="url(#_clip2)">
                <g>
                    <path d="M269.867,1.48C230.965,9.18 198.668,46.18 184.465,99.18C176.566,128.781 175.668,138.582 174.965,206.98C174.367,260.883 174.066,266.98 172.465,271.48C170.266,277.48 166.566,282.68 163.266,284.18L160.867,285.281L164.867,288.781C171.566,294.48 172.867,298.281 174.367,315.883C177.566,353.48 177.066,382.781 172.766,412.48C164.465,470.582 142.266,510.383 107.766,529.383C99.465,533.883 84.266,538.98 78.066,539.281L73.266,539.48L60.566,524.98L47.965,510.48L56.965,509.281C78.066,506.48 88.965,495.582 90.566,475.781C91.668,462.68 87.668,450.68 79.566,443.281C72.168,436.48 65.464,433.68 52.367,431.883C44.566,430.883 43.367,430.98 37.168,432.98C21.066,438.18 9.367,447.48 3.668,459.68C0.766,465.68 0.367,467.68 0.066,477.082C-0.434,490.082 1.867,500.48 7.867,512.48C16.066,528.68 28.965,541.281 46.367,549.98C62.465,557.98 69.266,559.48 88.867,559.48C105.367,559.48 105.367,559.48 116.367,555.68C135.168,549.18 148.867,540.781 163.766,526.48C195.367,496.18 214.066,453.48 220.867,395.98C221.465,390.781 222.367,373.68 222.867,357.98C223.367,342.281 224.266,327.48 224.867,324.98C226.266,319.48 230.668,311.18 232.965,309.883C234.465,309.082 234.367,308.68 231.465,305.781C224.168,298.383 222.566,289.281 220.766,242.48C217.766,164.582 222.867,103.48 235.766,64.281C247.066,29.883 263.168,12.48 284.867,11.18L292.367,10.781L303.066,22.281L313.766,33.68L307.965,34.281C292.465,35.68 284.766,46.281 284.465,66.582C284.367,75.883 284.566,76.98 287.367,82.582C294.465,96.48 313.465,100.781 331.266,92.68C342.867,87.383 348.867,78.582 348.867,66.98C348.867,48.98 341.465,29.48 330.168,17.781C315.965,3.18 292.867,-3.117 269.867,1.48Z" style="fill-rule:nonzero;"/>
                </g>
            </g>
        </g>
    </g>
    <g id="D84B4D30-11A8-4EFE-B44D-1FFDC2176FD3.eps2" serif:id="D84B4D30-11A8-4EFE-B44D-1FFDC2176FD3.eps" transform="matrix(2.52355,-0.631715,1.03522,4.13544,2696.34,2413.43)">
        <g transform="matrix(1,0,0,1,-174.5,-280)">
            <clipPath id="_clip3">
                <rect x="0" y="0" width="349" height="560"/>
            </clipPath>
            <g clip-path="url(#_clip3)">
                <g>
                    <path d="M269.867,1.48C230.965,9.18 198.668,46.18 184.465,99.18C176.566,128.781 175.668,138.582 174.965,206.98C174.367,260.883 174.066,266.98 172.465,271.48C170.266,277.48 166.566,282.68 163.266,284.18L160.867,285.281L164.867,288.781C171.566,294.48 172.867,298.281 174.367,315.883C177.566,353.48 177.066,382.781 172.766,412.48C164.465,470.582 142.266,510.383 107.766,529.383C99.465,533.883 84.266,538.98 78.066,539.281L73.266,539.48L60.566,524.98L47.965,510.48L56.965,509.281C78.066,506.48 88.965,495.582 90.566,475.781C91.668,462.68 87.668,450.68 79.566,443.281C72.168,436.48 65.464,433.68 52.367,431.883C44.566,430.883 43.367,430.98 37.168,432.98C21.066,438.18 9.367,447.48 3.668,459.68C0.766,465.68 0.367,467.68 0.066,477.082C-0.434,490.082 1.867,500.48 7.867,512.48C16.066,528.68 28.965,541.281 46.367,549.98C62.465,557.98 69.266,559.48 88.867,559.48C105.367,559.48 105.367,559.48 116.367,555.68C135.168,549.18 148.867,540.781 163.766,526.48C195.367,496.18 214.066,453.48 220.867,395.98C221.465,390.781 222.367,373.68 222.867,357.98C223.367,342.281 224.266,327.48 224.867,324.98C226.266,319.48 230.668,311.18 232.965,309.883C234.465,309.082 234.367,308.68 231.465,305.781C224.168,298.383 222.566,289.281 220.766,242.48C217.766,164.582 222.867,103.48 235.766,64.281C247.066,29.883 263.168,12.48 284.867,11.18L292.367,10.781L303.066,22.281L313.766,33.68L307.965,34.281C292.465,35.68 284.766,46.281 284.465,66.582C284.367,75.883 284.566,76.98 287.367,82.582C294.465,96.48 313.465,100.781 331.266,92.68C342.867,87.383 348.867,78.582 348.867,66.98C348.867,48.98 341.465,29.48 330.168,17.781C315.965,3.18 292.867,-3.117 269.867,1.48Z" style="fill-rule:nonzero;"/>
                </g>
            </g>
        </g>
    </g>
    <g id="D84B4D30-11A8-4EFE-B44D-1FFDC2176FD3.eps3" serif:id="D84B4D30-11A8-4EFE-B44D-1FFDC2176FD3.eps" transform="matrix(1.99639,1.66788,-2.73322,3.27155,1924.81,2741.79)">
        <g transform="matrix(1,0,0,1,-174.5,-280)">
            <clipPath id="_clip4">
                <rect x="0" y="0" width="349" height="560"/>
            </clipPath>
            <g clip-path="url(#_clip4)">
                <g>
                    <path d="M269.867,1.48C230.965,9.18 198.668,46.18 184.465,99.18C176.566,128.781 175.668,138.582 174.965,206.98C174.367,260.883 174.066,266.98 172.465,271.48C170.266,277.48 166.566,282.68 163.266,284.18L160.867,285.281L164.867,288.781C171.566,294.48 172.867,298.281 174.367,315.883C177.566,353.48 177.066,382.781 172.766,412.48C164.465,470.582 142.266,510.383 107.766,529.383C99.465,533.883 84.266,538.98 78.066,539.281L73.266,539.48L60.566,524.98L47.965,510.48L56.965,509.281C78.066,506.48 88.965,495.582 90.566,475.781C91.668,462.68 87.668,450.68 79.566,443.281C72.168,436.48 65.464,433.68 52.367,431.883C44.566,430.883 43.367,430.98 37.168,432.98C21.066,438.18 9.367,447.48 3.668,459.68C0.766,465.68 0.367,467.68 0.066,477.082C-0.434,490.082 1.867,500.48 7.867,512.48C16.066,528.68 28.965,541.281 46.367,549.98C62.465,557.98 69.266,559.48 88.867,559.48C105.367,559.48 105.367,559.48 116.367,555.68C135.168,549.18 148.867,540.781 163.766,526.48C195.367,496.18 214.066,453.48 220.867,395.98C221.465,390.781 222.367,373.68 222.867,357.98C223.367,342.281 224.266,327.48 224.867,324.98C226.266,319.48 230.668,311.18 232.965,309.883C234.465,309.082 234.367,308.68 231.465,305.781C224.168,298.383 222.566,289.281 220.766,242.48C217.766,164.582 222.867,103.48 235.766,64.281C247.066,29.883 263.168,12.48 284.867,11.18L292.367,10.781L303.066,22.281L313.766,33.68L307.965,34.281C292.465,35.68 284.766,46.281 284.465,66.582C284.367,75.883 284.566,76.98 287.367,82.582C294.465,96.48 313.465,100.781 331.266,92.68C342.867,87.383 348.867,78.582 348.867,66.98C348.867,48.98 341.465,29.48 330.168,17.781C315.965,3.18 292.867,-3.117 269.867,1.48Z" style="fill-rule:nonzero;"/>
                </g>
            </g>
        </g>
    </g>
    <g id="D84B4D30-11A8-4EFE-B44D-1FFDC2176FD3.eps4" serif:id="D84B4D30-11A8-4EFE-B44D-1FFDC2176FD3.eps" transform="matrix(0.0220628,2.60133,-4.26289,0.0361551,1147.55,2470.51)">
        <g transform="matrix(1,0,0,1,-174.5,-280)">
            <clipPath id="_clip5">
                <rect x="0" y="0" width="349" height="560"/>
            </clipPath>
            <g clip-path="url(#_clip5)">
                <g>
                    <path d="M269.867,1.48C230.965,9.18 198.668,46.18 184.465,99.18C176.566,128.781 175.668,138.582 174.965,206.98C174.367,260.883 174.066,266.98 172.465,271.48C170.266,277.48 166.566,282.68 163.266,284.18L160.867,285.281L164.867,288.781C171.566,294.48 172.867,298.281 174.367,315.883C177.566,353.48 177.066,382.781 172.766,412.48C164.465,470.582 142.266,510.383 107.766,529.383C99.465,533.883 84.266,538.98 78.066,539.281L73.266,539.48L60.566,524.98L47.965,510.48L56.965,509.281C78.066,506.48 88.965,495.582 90.566,475.781C91.668,462.68 87.668,450.68 79.566,443.281C72.168,436.48 65.464,433.68 52.367,431.883C44.566,430.883 43.367,430.98 37.168,432.98C21.066,438.18 9.367,447.48 3.668,459.68C0.766,465.68 0.367,467.68 0.066,477.082C-0.434,490.082 1.867,500.48 7.867,512.48C16.066,528.68 28.965,541.281 46.367,549.98C62.465,557.98 69.266,559.48 88.867,559.48C105.367,559.48 105.367,559.48 116.367,555.68C135.168,549.18 148.867,540.781 163.766,526.48C195.367,496.18 214.066,453.48 220.867,395.98C221.465,390.781 222.367,373.68 222.867,357.98C223.367,342.281 224.266,327.48 224.867,324.98C226.266,319.48 230.668,311.18 232.965,309.883C234.465,309.082 234.367,308.68 231.465,305.781C224.168,298.383 222.566,289.281 220.766,242.48C217.766,164.582 222.867,103.48 235.766,64.281C247.066,29.883 263.168,12.48 284.867,11.18L292.367,10.781L303.066,22.281L313.766,33.68L307.965,34.281C292.465,35.68 284.766,46.281 284.465,66.582C284.367,75.883 284.566,76.98 287.367,82.582C294.465,96.48 313.465,100.781 331.266,92.68C342.867,87.383 348.867,78.582 348.867,66.98C348.867,48.98 341.465,29.48 330.168,17.781C315.965,3.18 292.867,-3.117 269.867,1.48Z" style="fill-rule:nonzero;"/>
                </g>
            </g>
        </g>
    </g>
    <g id="D84B4D30-11A8-4EFE-B44D-1FFDC2176FD3.eps5" serif:id="D84B4D30-11A8-4EFE-B44D-1FFDC2176FD3.eps" transform="matrix(-2.52733,-0.61645,1.0102,-4.14162,1314.34,1044.4)">
        <g transform="matrix(1,0,0,1,-174.5,-280)">
            <clipPath id="_clip6">
                <rect x="0" y="0" width="349" height="560"/>
            </clipPath>
            <g clip-path="url(#_clip6)">
                <g>
                    <path d="M269.867,1.48C230.965,9.18 198.668,46.18 184.465,99.18C176.566,128.781 175.668,138.582 174.965,206.98C174.367,260.883 174.066,266.98 172.465,271.48C170.266,277.48 166.566,282.68 163.266,284.18L160.867,285.281L164.867,288.781C171.566,294.48 172.867,298.281 174.367,315.883C177.566,353.48 177.066,382.781 172.766,412.48C164.465,470.582 142.266,510.383 107.766,529.383C99.465,533.883 84.266,538.98 78.066,539.281L73.266,539.48L60.566,524.98L47.965,510.48L56.965,509.281C78.066,506.48 88.965,495.582 90.566,475.781C91.668,462.68 87.668,450.68 79.566,443.281C72.168,436.48 65.464,433.68 52.367,431.883C44.566,430.883 43.367,430.98 37.168,432.98C21.066,438.18 9.367,447.48 3.668,459.68C0.766,465.68 0.367,467.68 0.066,477.082C-0.434,490.082 1.867,500.48 7.867,512.48C16.066,528.68 28.965,541.281 46.367,549.98C62.465,557.98 69.266,559.48 88.867,559.48C105.367,559.48 105.367,559.48 116.367,555.68C135.168,549.18 148.867,540.781 163.766,526.48C195.367,496.18 214.066,453.48 220.867,395.98C221.465,390.781 222.367,373.68 222.867,357.98C223.367,342.281 224.266,327.48 224.867,324.98C226.266,319.48 230.668,311.18 232.965,309.883C234.465,309.082 234.367,308.68 231.465,305.781C224.168,298.383 222.566,289.281 220.766,242.48C217.766,164.582 222.867,103.48 235.766,64.281C247.066,29.883 263.168,12.48 284.867,11.18L292.367,10.781L303.066,22.281L313.766,33.68L307.965,34.281C292.465,35.68 284.766,46.281 284.465,66.582C284.367,75.883 284.566,76.98 287.367,82.582C294.465,96.48 313.465,100.781 331.266,92.68C342.867,87.383 348.867,78.582 348.867,66.98C348.867,48.98 341.465,29.48 330.168,17.781C315.965,3.18 292.867,-3.117 269.867,1.48Z" style="fill-rule:nonzero;"/>
                </g>
            </g>
        </g>
    </g>
    <g id="D84B4D30-11A8-4EFE-B44D-1FFDC2176FD3.eps6" serif:id="D84B4D30-11A8-4EFE-B44D-1FFDC2176FD3.eps" transform="matrix(-2.0435,1.6098,-2.63805,-3.34877,870.878,1716)">
        <g transform="matrix(1,0,0,1,-174.5,-280)">
            <clipPath id="_clip7">
                <rect x="0" y="0" width="349" height="560"/>
            </clipPath>
            <g clip-path="url(#_clip7)">
                <g>
                    <path d="M269.867,1.48C230.965,9.18 198.668,46.18 184.465,99.18C176.566,128.781 175.668,138.582 174.965,206.98C174.367,260.883 174.066,266.98 172.465,271.48C170.266,277.48 166.566,282.68 163.266,284.18L160.867,285.281L164.867,288.781C171.566,294.48 172.867,298.281 174.367,315.883C177.566,353.48 177.066,382.781 172.766,412.48C164.465,470.582 142.266,510.383 107.766,529.383C99.465,533.883 84.266,538.98 78.066,539.281L73.266,539.48L60.566,524.98L47.965,510.48L56.965,509.281C78.066,506.48 88.965,495.582 90.566,475.781C91.668,462.68 87.668,450.68 79.566,443.281C72.168,436.48 65.464,433.68 52.367,431.883C44.566,430.883 43.367,430.98 37.168,432.98C21.066,438.18 9.367,447.48 3.668,459.68C0.766,465.68 0.367,467.68 0.066,477.082C-0.434,490.082 1.867,500.48 7.867,512.48C16.066,528.68 28.965,541.281 46.367,549.98C62.465,557.98 69.266,559.48 88.867,559.48C105.367,559.48 105.367,559.48 116.367,555.68C135.168,549.18 148.867,540.781 163.766,526.48C195.367,496.18 214.066,453.48 220.867,395.98C221.465,390.781 222.367,373.68 222.867,357.98C223.367,342.281 224.266,327.48 224.867,324.98C226.266,319.48 230.668,311.18 232.965,309.883C234.465,309.082 234.367,308.68 231.465,305.781C224.168,298.383 222.566,289.281 220.766,242.48C217.766,164.582 222.867,103.48 235.766,64.281C247.066,29.883 263.168,12.48 284.867,11.18L292.367,10.781L303.066,22.281L313.766,33.68L307.965,34.281C292.465,35.68 284.766,46.281 284.465,66.582C284.367,75.883 284.566,76.98 287.367,82.582C294.465,96.48 313.465,100.781 331.266,92.68C342.867,87.383 348.867,78.582 348.867,66.98C348.867,48.98 341.465,29.48 330.168,17.781C315.965,3.18 292.867,-3.117 269.867,1.48Z" style="fill-rule:nonzero;"/>
                </g>
            </g>
        </g>
    </g>
    <g id="D84B4D30-11A8-4EFE-B44D-1FFDC2176FD3.eps7" serif:id="D84B4D30-11A8-4EFE-B44D-1FFDC2176FD3.eps" transform="matrix(-2.0435,1.6098,-2.63805,-3.34877,870.878,1716)">
        <g transform="matrix(1,0,0,1,-174.5,-280)">
            <clipPath id="_clip8">
                <rect x="0" y="0" width="349" height="560"/>
            </clipPath>
            <g clip-path="url(#_clip8)">
                <g>
                    <path d="M269.867,1.48C230.965,9.18 198.668,46.18 184.465,99.18C176.566,128.781 175.668,138.582 174.965,206.98C174.367,260.883 174.066,266.98 172.465,271.48C170.266,277.48 166.566,282.68 163.266,284.18L160.867,285.281L164.867,288.781C171.566,294.48 172.867,298.281 174.367,315.883C177.566,353.48 177.066,382.781 172.766,412.48C164.465,470.582 142.266,510.383 107.766,529.383C99.465,533.883 84.266,538.98 78.066,539.281L73.266,539.48L60.566,524.98L47.965,510.48L56.965,509.281C78.066,506.48 88.965,495.582 90.566,475.781C91.668,462.68 87.668,450.68 79.566,443.281C72.168,436.48 65.464,433.68 52.367,431.883C44.566,430.883 43.367,430.98 37.168,432.98C21.066,438.18 9.367,447.48 3.668,459.68C0.766,465.68 0.367,467.68 0.066,477.082C-0.434,490.082 1.867,500.48 7.867,512.48C16.066,528.68 28.965,541.281 46.367,549.98C62.465,557.98 69.266,559.48 88.867,559.48C105.367,559.48 105.367,559.48 116.367,555.68C135.168,549.18 148.867,540.781 163.766,526.48C195.367,496.18 214.066,453.48 220.867,395.98C221.465,390.781 222.367,373.68 222.867,357.98C223.367,342.281 224.266,327.48 224.867,324.98C226.266,319.48 230.668,311.18 232.965,309.883C234.465,309.082 234.367,308.68 231.465,305.781C224.168,298.383 222.566,289.281 220.766,242.48C217.766,164.582 222.867,103.48 235.766,64.281C247.066,29.883 263.168,12.48 284.867,11.18L292.367,10.781L303.066,22.281L313.766,33.68L307.965,34.281C292.465,35.68 284.766,46.281 284.465,66.582C284.367,75.883 284.566,76.98 287.367,82.582C294.465,96.48 313.465,100.781 331.266,92.68C342.867,87.383 348.867,78.582 348.867,66.98C348.867,48.98 341.465,29.48 330.168,17.781C315.965,3.18 292.867,-3.117 269.867,1.48Z" style="fill-rule:nonzero;"/>
                </g>
            </g>
        </g>
    </g>
</svg>
